<svg width="48" height="48" viewBox="0 0 48 48" fill="none" xmlns="http://www.w3.org/2000/svg">
<rect width="48" height="48" rx="10" fill="#E9ECF7"/>
<path d="M19 23.5V26M19 23.5V17.5C19 16.6716 19.6716 16 20.5 16C21.3284 16 22 16.6716 22 17.5M19 23.5C19 22.6716 18.3284 22 17.5 22C16.6716 22 16 22.6716 16 23.5V25.5C16 29.6421 19.3579 33 23.5 33C27.6421 33 31 29.6421 31 25.5V20.5C31 19.6716 30.3284 19 29.5 19C28.6716 19 28 19.6716 28 20.5M22 17.5V23M22 17.5V16.5C22 15.6716 22.6716 15 23.5 15C24.3284 15 25 15.6716 25 16.5V17.5M25 17.5V23M25 17.5C25 16.6716 25.6716 16 26.5 16C27.3284 16 28 16.6716 28 17.5V20.5M28 20.5V23" stroke="#2B49B5" stroke-width="1.5" stroke-linecap="round" stroke-linejoin="round"/>
</svg>
