<svg width="48" height="48" viewBox="0 0 48 48" fill="none" xmlns="http://www.w3.org/2000/svg">
<rect width="48" height="48" rx="10" fill="#E9ECF7"/>
<path d="M15.0549 23H17C18.1046 23 19 23.8954 19 25V26C19 27.1046 19.8954 28 21 28C22.1046 28 23 28.8954 23 30V32.9451M20 15.9355V17.5C20 18.8807 21.1193 20 22.5 20H23C24.1046 20 25 20.8954 25 22C25 23.1046 25.8954 24 27 24C28.1046 24 29 23.1046 29 22C29 20.8954 29.8954 20 31 20L32.0645 20M27 32.4879V30C27 28.8954 27.8954 28 29 28H32.0645M33 24C33 28.9706 28.9706 33 24 33C19.0294 33 15 28.9706 15 24C15 19.0294 19.0294 15 24 15C28.9706 15 33 19.0294 33 24Z" stroke="#2B49B5" stroke-width="1.5" stroke-linecap="round" stroke-linejoin="round"/>
</svg>
