<svg width="48" height="48" viewBox="0 0 48 48" fill="none" xmlns="http://www.w3.org/2000/svg">
<rect width="48" height="48" rx="10" fill="#E9ECF7"/>
<path d="M23.9906 18.75C25.4403 18.75 26.6156 17.5747 26.6156 16.125C26.6156 14.6753 25.4403 13.5 23.9906 13.5C22.5409 13.5 21.3656 14.6753 21.3656 16.125C21.3656 17.5747 22.5409 18.75 23.9906 18.75Z" stroke="#2B49B5" stroke-width="1.5" stroke-linecap="round" stroke-linejoin="round"/>
<path d="M26.4281 24.6281L29.6906 27.1594C29.9063 27.3389 30.1813 27.4313 30.4616 27.4186C30.742 27.4058 31.0074 27.2886 31.2058 27.0902C31.4043 26.8918 31.5214 26.6264 31.5342 26.346C31.547 26.0657 31.4545 25.7907 31.275 25.575L27.5625 20.8031C27.3895 20.6284 27.1836 20.4895 26.9568 20.3946C26.7299 20.2997 26.4865 20.2505 26.2406 20.25H21.7406C21.2415 20.2527 20.7634 20.4513 20.4094 20.8031L16.6969 25.575C16.5036 25.7896 16.4002 26.0703 16.4081 26.359C16.4161 26.6476 16.5348 26.9222 16.7396 27.1258C16.9444 27.3294 17.2197 27.4465 17.5084 27.4527C17.7971 27.459 18.0772 27.3539 18.2906 27.1594L21.5531 24.6281L18.9469 32.8406C18.8841 32.9748 18.8483 33.1201 18.8417 33.2681C18.835 33.4161 18.8576 33.564 18.9081 33.7032C18.9586 33.8425 19.036 33.9705 19.136 34.0799C19.2359 34.1892 19.3564 34.2778 19.4906 34.3406C19.6248 34.4034 19.7701 34.4392 19.9181 34.4458C20.0661 34.4525 20.214 34.4299 20.3532 34.3794C20.4925 34.3289 20.6205 34.2515 20.7299 34.1515C20.8392 34.0516 20.9278 33.9311 20.9906 33.7969L23.9906 29.0719L26.9906 33.7969C27.0492 33.9369 27.1356 34.0637 27.2445 34.1695C27.3533 34.2753 27.4825 34.3579 27.6242 34.4125C27.7659 34.467 27.9171 34.4924 28.0688 34.4869C28.2206 34.4815 28.3696 34.4453 28.507 34.3808C28.6444 34.3162 28.7673 34.2245 28.8683 34.1111C28.9693 33.9978 29.0464 33.8652 29.0947 33.7213C29.1431 33.5774 29.1619 33.4252 29.1499 33.2738C29.1379 33.1225 29.0954 32.9751 29.025 32.8406L26.4281 24.6281Z" stroke="#2B49B5" stroke-width="1.5" stroke-linecap="round" stroke-linejoin="round"/>
</svg>
