<svg width="48" height="48" viewBox="0 0 48 48" fill="none" xmlns="http://www.w3.org/2000/svg">
<rect width="48" height="48" rx="10" fill="#E9ECF7"/>
<path d="M19 33C16.7909 33 15 31.2091 15 29V17C15 15.8954 15.8954 15 17 15H21C22.1046 15 23 15.8954 23 17V29C23 31.2091 21.2091 33 19 33ZM19 33H31C32.1046 33 33 32.1046 33 31V27C33 25.8954 32.1046 25 31 25H28.6569M23 19.3431L24.6569 17.6863C25.4379 16.9052 26.7042 16.9052 27.4853 17.6863L30.3137 20.5147C31.0948 21.2958 31.0948 22.5621 30.3137 23.3431L21.8284 31.8284M19 29H19.01" stroke="#2B49B5" stroke-width="1.5" stroke-linecap="round" stroke-linejoin="round"/>
</svg>
