<svg width="48" height="48" viewBox="0 0 48 48" fill="none" xmlns="http://www.w3.org/2000/svg">
<rect width="48" height="48" rx="10" fill="#E9ECF7"/>
<path d="M23.049 14.9266C23.3483 14.0054 24.6517 14.0054 24.951 14.9266L26.4699 19.6005C26.6038 20.0125 26.9877 20.2915 27.4209 20.2915L32.3354 20.2917C33.3041 20.2917 33.7068 21.5313 32.9232 22.1007L28.9474 24.9895C28.5969 25.2441 28.4503 25.6955 28.5841 26.1075L30.1026 30.7815C30.4019 31.7028 29.3475 32.4689 28.5638 31.8995L24.5878 29.011C24.2373 28.7564 23.7627 28.7564 23.4122 29.011L19.4362 31.8995C18.6525 32.4689 17.5981 31.7028 17.8974 30.7815L19.4159 26.1075C19.5497 25.6955 19.4031 25.2441 19.0526 24.9895L15.0768 22.1007C14.2932 21.5313 14.6959 20.2917 15.6646 20.2917L20.5791 20.2915C21.0123 20.2915 21.3962 20.0125 21.5301 19.6005L23.049 14.9266Z" stroke="#2B49B5" stroke-width="1.5"/>
</svg>
