<svg width="56" height="57" viewBox="0 0 56 57" fill="none" xmlns="http://www.w3.org/2000/svg">
<rect y="0.983994" width="56" height="56" rx="28" fill="#E9ECF7"/>
<path d="M24.8847 35.6507H31.1153M28 16.984V18.3173M36.4853 20.4987L35.5425 21.4415M40.0001 28.9839H38.6667M17.3334 28.9839H16.0001M20.4575 21.4415L19.5147 20.4987M23.286 33.6981C20.6825 31.0946 20.6825 26.8735 23.286 24.27C25.8894 21.6665 30.1105 21.6665 32.714 24.27C35.3175 26.8735 35.3175 31.0946 32.714 33.6981L31.9846 34.4275C31.1407 35.2714 30.6667 36.4159 30.6667 37.6093V38.3173C30.6667 39.7901 29.4728 40.984 28 40.984C26.5272 40.984 25.3333 39.7901 25.3333 38.3173V37.6093C25.3333 36.4159 24.8593 35.2714 24.0154 34.4275L23.286 33.6981Z" stroke="#2A48B5" stroke-width="2" stroke-linecap="round" stroke-linejoin="round"/>
</svg>
