<svg width="128" height="128" viewBox="0 0 128 128" fill="none" xmlns="http://www.w3.org/2000/svg">
<path fill-rule="evenodd" clip-rule="evenodd" d="M46.9415 91.9385H78.9415V89.5754C78.9415 83.5693 79.8277 81.797 88.3939 70.5723C104.443 50.0923 89.1816 18.88 62.8923 19.1754C36.6031 18.88 21.44 50.0923 37.3908 70.5723C45.9569 81.8954 46.8431 83.6677 46.8431 89.5754V91.9385H46.9415Z" fill="#74F2C4"/>
<path d="M81.0092 89.4769H44.9723C43.5938 89.4769 42.5107 90.56 42.5107 91.9385V110.843C42.5107 112.222 43.5938 113.305 44.9723 113.305H51.8646L54.6215 116.751C55.1138 117.342 55.8031 117.637 56.4923 117.637H60.4308V125.514C60.5292 128.763 65.2554 128.763 65.3538 125.514V117.637H69.2923C70.08 117.637 70.7692 117.342 71.1631 116.751L73.92 113.305H80.8123C82.1908 113.305 83.2738 112.222 83.2738 110.843V91.9385C83.4708 90.56 82.2892 89.4769 81.0092 89.4769ZM78.5477 108.382H72.9354C72.1477 108.382 71.4584 108.677 71.0646 109.268L68.3077 112.714H57.8707L55.1138 109.268C54.6215 108.677 53.9323 108.382 53.2431 108.382H47.6308V94.4H78.7446V108.382H78.5477Z" fill="#2E378F"/>
<path d="M62.9908 11.7908C64.3693 11.7908 65.4524 10.7077 65.4524 9.32924V4.40616C65.3539 1.15693 60.6278 1.15693 60.5293 4.40616V9.32924C60.5293 10.7077 61.6124 11.7908 62.9908 11.7908Z" fill="#2E378F"/>
<path d="M44.1844 13.6615L41.7229 9.42769C41.0337 8.24615 39.5567 7.85231 38.3752 8.54154C37.1937 9.23077 36.7998 10.7077 37.489 11.8892L39.9506 16.1231C40.6398 17.3046 42.1167 17.6985 43.2983 17.0092C44.4798 16.4185 44.8737 14.8431 44.1844 13.6615Z" fill="#2E378F"/>
<path d="M27.9388 28.1354L23.7049 25.6739C22.5234 24.9846 21.0464 25.3785 20.3572 26.56C19.668 27.7416 20.0618 29.2185 21.2434 29.9077L25.4772 32.3692C26.6588 33.0585 28.1357 32.6646 28.8249 31.4831C29.5141 30.3016 29.1203 28.8246 27.9388 28.1354Z" fill="#2E378F"/>
<path d="M23.6062 51.1754C23.6062 49.7969 22.5231 48.7139 21.1447 48.7139H16.2216C12.9724 48.8123 12.9724 53.5385 16.2216 53.6369H21.1447C22.4247 53.6369 23.6062 52.5539 23.6062 51.1754Z" fill="#2E378F"/>
<path d="M25.4772 69.9816L21.2434 72.4431C20.0618 73.1324 19.668 74.6093 20.3572 75.7908C21.0464 76.9724 22.5234 77.3662 23.7049 76.677L27.9388 74.2155C29.1203 73.5262 29.5141 72.0493 28.8249 70.8678C28.1357 69.6862 26.6588 69.2924 25.4772 69.9816Z" fill="#2E378F"/>
<path d="M104.739 72.4431L100.505 69.9816C99.3232 69.2924 97.8462 69.6862 97.157 70.8678C96.4678 72.0493 96.8616 73.5262 98.0432 74.2155L102.277 76.677C103.459 77.3662 104.935 76.9724 105.625 75.7908C106.314 74.6093 105.92 73.1324 104.739 72.4431Z" fill="#2E378F"/>
<path d="M109.76 48.7139H104.837C101.588 48.8123 101.588 53.5385 104.837 53.6369H109.76C113.009 53.5385 113.009 48.8123 109.76 48.7139Z" fill="#2E378F"/>
<path d="M99.2245 32.6646C99.6184 32.6646 100.111 32.5662 100.406 32.3692L104.64 29.9077C105.821 29.2185 106.215 27.7416 105.526 26.56C104.837 25.3785 103.36 24.9846 102.178 25.6739L97.9445 28.1354C96.763 28.8246 96.3692 30.3016 97.0584 31.4831C97.5507 32.2708 98.3384 32.6646 99.2245 32.6646Z" fill="#2E378F"/>
<path d="M87.6059 8.54154C86.4244 7.85231 84.9474 8.24615 84.2582 9.42769L81.7967 13.6615C81.1074 14.8431 81.5013 16.32 82.6828 17.0092C83.8644 17.6985 85.3413 17.3046 86.0305 16.1231L88.492 11.8892C89.1813 10.7077 88.7874 9.23077 87.6059 8.54154Z" fill="#2E378F"/>
<path d="M78.0557 35.6185C77.6618 34.8308 76.7757 34.4369 75.988 34.4369L57.0834 34.24C55.9019 34.24 54.8188 35.1261 54.6219 36.3077L51.4711 56.3938C51.2742 57.5754 52.0619 58.8554 53.2434 59.1508L56.9849 60.2338L55.8034 74.3138C55.7049 75.3969 56.3942 76.3815 57.3788 76.7754C58.3634 77.1692 59.5449 76.8738 60.2341 75.9877L77.268 53.2431C77.7603 52.5538 77.8588 51.7661 77.6619 50.9785C77.3665 50.1908 76.7757 49.6 75.988 49.4031L72.5418 48.5169L78.2526 38.08C78.548 37.1938 78.548 36.3077 78.0557 35.6185ZM66.4372 50.9785C66.7326 51.6677 67.3234 52.16 68.1111 52.3569L71.0649 53.1446L61.4157 66.0431L62.0065 58.4615C62.1049 57.28 61.3172 56.1969 60.2341 55.9015L56.5911 54.9169L59.1511 39.0646L71.8526 39.1631L66.5357 48.8123C66.1419 49.5015 66.1419 50.2892 66.4372 50.9785Z" fill="#2E378F"/>
</svg>
