<svg width="128" height="128" viewBox="0 0 128 128" fill="none" xmlns="http://www.w3.org/2000/svg">
<path d="M35.8736 70.517C31.8366 71.1077 28.1936 72.7816 25.2397 75.44C18.2489 81.84 17.5597 102.123 17.4613 104.388L17.3628 106.849C25.4366 108.326 33.412 105.077 38.7289 100.252L39.9105 99.1693L42.4705 104.88L45.2274 103.994C52.8089 101.532 56.6489 96.7077 57.6336 90.6031C55.5659 88.5354 38.1382 72.5847 35.8736 70.517Z" fill="#74F2C4"/>
<path d="M76.2426 63.9201C82.7411 63.9201 88.058 58.6032 88.058 52.1047C88.058 45.6062 82.7411 40.2893 76.2426 40.2893C69.7442 40.2893 64.4272 45.6062 64.4272 52.1047C64.4272 58.6032 69.6457 63.9201 76.2426 63.9201Z" fill="#74F2C4"/>
<path d="M83.0366 100.351L80.7719 81.6431L86.3842 77.6062C92.095 73.5693 98.7904 66.9724 102.63 61.557C107.16 55.157 110.409 47.9693 112.181 40.2893C113.953 32.5108 114.15 24.5354 112.772 16.6585C112.575 15.6739 111.787 14.7877 110.803 14.6893C102.926 13.3108 94.9504 13.5077 87.1719 15.2801C79.4919 17.0524 72.3042 20.2031 65.9042 24.8308C60.3904 28.6708 53.7935 35.3662 49.855 41.077L45.8181 46.6893L27.1104 44.4247C26.1258 44.3262 25.0427 44.917 24.6489 45.9016L12.0458 72.9785C11.6519 73.8647 11.7504 74.8493 12.4396 75.637C12.4396 75.7354 12.5381 75.7354 12.5381 75.7354C13.2273 76.4247 14.1135 76.6216 14.9996 76.4247L32.5258 71.5016L56.1566 95.1324L51.2335 112.659C51.0366 113.545 51.2335 114.431 51.8242 115.022L51.9227 115.12C52.6119 115.711 53.695 115.908 54.5812 115.514L81.6581 102.911C82.6427 102.419 83.135 101.434 83.0366 100.351ZM108.243 19.317C109.227 26.4062 108.833 33.6924 107.061 40.5847L86.8766 20.4985C93.7689 18.7262 101.055 18.3324 108.243 19.317ZM68.7596 28.8677C72.6981 26.0124 77.0304 23.8462 81.5596 22.1724L105.387 46.0001C103.713 50.5293 101.449 54.8616 98.6919 58.8001C95.1473 63.8216 88.9442 69.9262 83.6273 73.6677L59.1104 91.1939L36.3658 68.3508L53.8919 43.9324C57.535 38.7139 63.7381 32.5108 68.7596 28.8677ZM18.8396 70.2216L28.3904 49.5447L42.5689 51.2185L31.5412 66.5785L18.8396 70.2216ZM57.3381 108.72L60.9812 96.0185L76.3412 84.9908L78.015 99.1693L57.3381 108.72Z" fill="#2E378F"/>
<path d="M68.0704 60.474C72.6981 65.1017 80.1811 65.1017 84.8088 60.474C89.4365 56.0432 89.4365 48.0678 84.8088 43.7355C80.1811 39.1078 72.6981 39.1078 68.0704 43.7355C63.4427 48.1663 63.4427 56.0432 68.0704 60.474ZM71.5165 47.1817C74.175 44.5232 78.6058 44.5232 81.3627 47.1817C84.0211 49.7417 84.0211 54.3694 81.3627 57.0278C78.7042 59.6863 74.2735 59.6863 71.5165 57.0278C68.8581 54.4678 68.8581 49.7417 71.5165 47.1817Z" fill="#2E378F"/>
<path d="M33.904 92.4739C32.9194 91.4893 31.344 91.4893 30.4579 92.4739L14.704 108.129C13.7194 109.114 13.7194 110.689 14.704 111.575C15.6887 112.56 17.264 112.56 18.1502 111.575L33.8056 95.9201C34.7902 94.9355 34.7902 93.3601 33.904 92.4739Z" fill="#2E378F"/>
<path d="M45.1289 94.0492L36.4643 102.714C34.1997 105.077 37.5474 108.425 39.9104 106.16L48.575 97.4954C50.8397 95.1323 47.492 91.7846 45.1289 94.0492Z" fill="#2E378F"/>
<path d="M19.9226 91.7848C20.5133 91.7848 21.2026 91.5879 21.6949 91.0956L30.3595 82.4309C32.6241 80.0679 29.2764 76.7202 26.9133 78.9848L18.2487 87.6494C16.6733 89.1263 17.7564 91.7848 19.9226 91.7848Z" fill="#2E378F"/>
</svg>
