<svg width="128" height="128" viewBox="0 0 128 128" fill="none" xmlns="http://www.w3.org/2000/svg">
<path d="M92.3571 79.9266L89.4032 117.637C89.2063 121.28 85.9571 124.136 82.0186 124.136H44.0124C40.074 124.136 36.8247 121.28 36.6278 117.637L33.4771 77.3666C34.3632 77.5636 35.2494 77.859 36.0371 78.1543C39.7786 79.4343 42.9294 80.9113 50.2155 80.9113C56.0247 80.9113 59.1755 79.9266 62.0309 78.942L67.3478 77.1697C69.514 76.6774 72.074 76.2836 75.717 76.2836C83.0032 76.2836 86.154 77.7605 89.7971 79.0405C90.6832 79.4343 91.4709 79.6313 92.3571 79.9266Z" fill="#74F2C4"/>
<path d="M93.7354 46.8435H32.2954C32.2954 31.3851 44.8 18.782 60.3569 18.782H65.6739C81.1323 18.782 93.7354 31.2866 93.7354 46.8435Z" fill="#74F2C4"/>
<path d="M100.037 46.7451H65.477L61.5385 11.2005C61.5385 10.2158 60.9478 9.23123 59.9632 8.93585L44.3078 1.15739C43.0278 0.66508 41.6493 1.25585 41.157 2.53585C40.6647 3.81585 41.2555 5.19431 42.5355 5.68662L56.7139 12.8743L60.6524 46.6466H26.0924C24.7139 46.6466 23.6309 47.7297 23.6309 49.1082V59.4466C23.6309 60.8251 24.7139 61.9082 26.0924 61.9082H27.8647L35.0524 124.727C35.1509 126.007 36.2339 126.991 37.5139 126.991H88.7139C89.9939 126.991 91.077 126.007 91.1755 124.727L98.3632 61.9082H100.135C101.514 61.9082 102.597 60.8251 102.597 59.4466V49.2066C102.499 47.9266 101.415 46.7451 100.037 46.7451ZM28.357 51.6682H97.5755V57.0835H28.357V51.6682ZM86.2524 122.167H39.5816L32.5909 62.0066H93.2432L86.2524 122.167Z" fill="#2E378F"/>
<path d="M93.7355 78.1543C93.7355 76.7758 92.6524 75.6927 91.2739 75.6927H32.6893C31.3109 75.6927 30.2278 76.7758 30.2278 78.1543C30.2278 79.5327 31.3109 80.6158 32.6893 80.6158H91.2739C92.5539 80.6158 93.7355 79.5327 93.7355 78.1543Z" fill="#2E378F"/>
</svg>
