<svg width="128" height="128" viewBox="0 0 128 128" fill="none" xmlns="http://www.w3.org/2000/svg">
<path d="M126.048 95.1139C125.753 94.2278 125.064 93.637 124.177 93.4401L108.325 89.8955L110.59 81.3293C110.984 80.0493 110.196 78.6709 108.817 78.277C103.894 76.997 98.8728 75.8155 93.7528 74.9293L87.0574 73.8463L75.8328 72.7632L70.9097 72.4678C69.1374 72.3693 67.3651 72.3693 65.5928 72.2709H60.6697C58.8974 72.2709 57.1251 72.3693 55.3528 72.4678L50.4297 72.7632L39.1067 73.9447L32.5097 75.0278C27.3897 75.914 22.3682 76.997 17.4451 78.3755C16.1651 78.7693 15.3774 80.0493 15.6728 81.4278L17.9374 89.994L1.98664 93.4401C1.10049 93.637 0.411264 94.3263 0.11588 95.1139C-0.179505 96.0001 0.115886 96.8863 0.706655 97.5755L8.38664 105.354L4.74358 115.692C4.4482 116.579 4.64512 117.465 5.23589 118.154C5.82666 118.843 6.71281 119.139 7.59896 118.942L33.4943 113.132C34.7743 112.837 35.6605 111.557 35.3651 110.179L33.3959 101.317C52.6944 97.3786 73.4697 97.3786 92.7682 101.317L90.799 110.179C90.5036 111.459 91.2913 112.837 92.6697 113.132L118.565 118.942C119.451 119.139 120.337 118.843 120.928 118.154C121.519 117.465 121.716 116.579 121.42 115.692L117.777 105.354L125.457 97.5755C126.048 96.8863 126.245 96.0001 126.048 95.1139ZM10.9466 113.132L13.6051 105.551C13.9005 104.665 13.7036 103.68 13.0143 102.991L7.40203 97.2801L19.119 94.6216L20.9897 101.711C21.1867 102.302 21.5805 102.892 22.1713 103.188C22.762 103.483 23.4513 103.582 24.0421 103.385C25.519 102.991 27.0943 102.597 28.5713 102.203L30.0482 108.702L10.9466 113.132ZM25.2236 98.0678L20.9897 82.4124C48.559 75.4216 77.6051 75.4216 105.174 82.4124L100.94 98.0678C76.3251 91.8647 49.839 91.8647 25.2236 98.0678ZM113.15 102.991C112.461 103.68 112.264 104.665 112.559 105.551L115.217 113.132L96.1159 108.899L97.5928 102.4C99.0697 102.794 100.645 103.089 102.122 103.582C102.713 103.779 103.402 103.68 103.993 103.385C104.584 103.089 104.977 102.499 105.174 101.908L107.045 94.8186L118.762 97.477L113.15 102.991Z" fill="#2E378F"/>
<path d="M103.009 42.437C103.599 41.7477 103.402 40.96 103.304 40.6647C103.205 40.3693 102.91 39.68 102.024 39.4831L78.9839 33.3785C78.2947 33.1816 77.8024 32.7877 77.4085 32.197L64.6085 11.717C64.1162 10.9293 63.427 10.8308 63.1316 10.8308C62.8362 10.8308 62.147 10.9293 61.6547 11.717L48.8547 32.197C48.4608 32.7877 47.9685 33.1816 47.2793 33.3785L24.2393 39.4831C23.3531 39.68 23.0578 40.3693 22.9593 40.6647C22.8608 40.96 22.6639 41.7477 23.2547 42.437L38.4177 61.1447C38.8116 61.637 39.0085 62.3262 39.0085 62.917L37.5316 87.1385C37.4331 88.1231 38.0239 88.6154 38.3193 88.8124C38.6147 89.0093 39.2054 89.3047 39.9931 89.0093L62.147 80.1477C62.4424 80.0493 62.7378 79.9508 63.1316 79.9508C63.427 79.9508 63.8208 80.0493 64.1162 80.1477L86.2701 89.0093C87.0578 89.3047 87.6485 89.0093 87.9439 88.8124C88.2393 88.6154 88.7316 88.1231 88.7316 87.1385L87.2547 62.917C87.2547 62.8185 87.2547 62.8185 87.2547 62.72C87.2547 62.1293 87.4516 61.5385 87.8455 61.0462L103.009 42.437Z" fill="#74F2C4"/>
<path d="M84.202 44.6031L71.1067 42.7324L65.2974 30.917C64.4113 29.0462 61.7528 29.0462 60.8667 30.917L55.0574 42.7324L41.962 44.6031C39.9928 44.8985 39.1067 47.3601 40.5836 48.837L50.0359 58.0924L47.7713 71.0893C47.4759 73.0585 49.5436 74.6339 51.3159 73.6493L63.0328 67.5447L74.7497 73.6493C76.522 74.6339 78.6882 73.0585 78.2943 71.0893L76.1282 57.9939L85.5805 48.7385C87.0574 47.3601 86.2697 44.8985 84.202 44.6031ZM71.7959 55.3355C71.2051 55.9262 70.9097 56.7139 71.1067 57.5016L72.682 66.8555L64.2143 62.4247C63.5251 62.0308 62.639 62.0308 61.9497 62.4247L53.482 66.8555L55.0574 57.5016C55.1559 56.7139 54.959 55.9262 54.3682 55.3355L47.5744 48.6401L57.0267 47.2616C57.8144 47.1631 58.5036 46.6708 58.8974 45.8831L63.1313 37.317L67.3651 45.8831C67.759 46.5724 68.4482 47.0647 69.2359 47.2616L78.6882 48.6401L71.7959 55.3355Z" fill="#2E378F"/>
</svg>
